<svg width="20" height="21" viewBox="0 0 20 21" fill="none" xmlns="http://www.w3.org/2000/svg">
<path d="M7.32554 13.1346C9.17753 14.9929 11.4313 16.4243 13.2707 16.4243C14.0931 16.4243 14.8151 16.1355 15.3926 15.4951C15.7317 15.1184 15.9388 14.6853 15.9388 14.2521C15.9388 13.9194 15.807 13.5929 15.4868 13.3669L13.5595 11.9983C13.2519 11.7849 13.0008 11.6844 12.7748 11.6844C12.4797 11.6844 12.216 11.8477 11.9272 12.1364L11.4752 12.5885C11.3999 12.6575 11.312 12.6889 11.2304 12.6889C11.13 12.6889 11.0358 12.6512 10.973 12.6136C10.5775 12.4001 9.89948 11.8225 9.27169 11.1948C8.6439 10.567 8.06006 9.89523 7.85289 9.49345C7.81522 9.42439 7.78383 9.3365 7.78383 9.23605C7.78383 9.16072 7.80894 9.07283 7.878 8.99749L8.33001 8.53921C8.61251 8.24414 8.78202 7.98675 8.78202 7.69169C8.78202 7.45941 8.68157 7.20829 8.46812 6.90695L7.10582 4.99847C6.87354 4.67202 6.54708 4.53391 6.18924 4.53391C5.76235 4.53391 5.33545 4.72224 4.96505 5.08008C4.33726 5.67021 4.06104 6.40472 4.06104 7.21457C4.06104 9.05399 5.47356 11.2826 7.32554 13.1346Z" fill="#1C1C1E"/>
</svg>
